<?xml version="1.0" standalone="no"?><!DOCTYPE svg PUBLIC "-//W3C//DTD SVG 1.1//EN" "http://www.w3.org/Graphics/SVG/1.1/DTD/svg11.dtd"><svg t="1510653151196" class="icon" style="" viewBox="0 0 1024 1024" version="1.1" xmlns="http://www.w3.org/2000/svg" p-id="4478" xmlns:xlink="http://www.w3.org/1999/xlink" width="200" height="200"><defs><style type="text/css"></style></defs><path d="M717.168382 511.948836c0-80.634756-46.45708-150.013391-113.993804-183.679424l0 100.691116L714.917158 540.703108C716.247427 531.595883 717.168382 522.079344 717.168382 511.948836M831.162186 511.948836c0 42.875587-9.107225 82.988308-24.661137 120.338163l68.866993 68.866993c30.084541-56.48526 46.968722-120.849805 46.968722-189.205156 0-195.140202-136.301389-358.251624-319.059858-399.796942L603.276906 206.089337C734.973519 245.281103 831.162186 367.461177 831.162186 511.948836M159.581093 101.7144l-57.917857 57.917857 215.605876 215.605876L101.765564 375.238133l0 273.523733 182.349156 0 227.987609 227.987609L512.102328 569.866693l193.707605 193.707605c-30.493854 23.740182-64.67153 42.363945-102.533027 53.824723l0 93.835115c62.931948-14.121315 119.92885-43.284901 168.227841-82.476666l93.016488 93.425802 57.917857-57.917857L512 454.133307 159.581093 101.7144zM512 147.250525l-95.267713 95.267713 95.267713 95.267713L512 147.250525z" p-id="4479" fill="#1296db"></path></svg>